<svg width="134" height="36" viewBox="0 0 134 36" fill="none" xmlns="http://www.w3.org/2000/svg">
<rect width="134" height="36" fill="#F4D424"/>
<path d="M28 9H26V8C25.9995 7.46973 25.7886 6.96133 25.4136 6.58637C25.0387 6.21141 24.5303 6.00053 24 6H12C11.4697 6.00053 10.9613 6.21141 10.5864 6.58637C10.2114 6.96133 10.0005 7.46973 10 8V9H8C7.46973 9.00053 6.96133 9.21141 6.58637 9.58637C6.21141 9.96133 6.00053 10.4697 6 11V14C6.00132 15.0605 6.42318 16.0771 7.17303 16.827C7.92289 17.5768 8.93954 17.9987 10 18H10.322C10.7387 19.5307 11.5921 20.907 12.778 21.9607C13.9639 23.0145 15.4309 23.7002 17 23.934V28H12V30H24V28H19V23.931C20.5895 23.7345 22.0828 23.0635 23.2851 22.0055C24.4875 20.9474 25.343 19.5516 25.74 18H26C27.0605 17.9987 28.0771 17.5768 28.827 16.827C29.5768 16.0771 29.9987 15.0605 30 14V11C29.9995 10.4697 29.7886 9.96133 29.4136 9.58637C29.0387 9.21141 28.5303 9.00053 28 9ZM10 16C9.46973 15.9995 8.96133 15.7886 8.58637 15.4136C8.21141 15.0387 8.00053 14.5303 8 14V11H10V16ZM24 16C24 16.8036 23.8386 17.599 23.5253 18.339C23.212 19.079 22.7533 19.7485 22.1763 20.3078C21.5994 20.8672 20.9159 21.3049 20.1666 21.5951C19.4172 21.8852 18.6172 22.0219 17.814 21.997C16.2218 21.8979 14.7291 21.1889 13.6462 20.0174C12.5634 18.8459 11.9738 17.3021 12 15.707V8H24V16ZM28 14C27.9995 14.5303 27.7886 15.0387 27.4136 15.4136C27.0387 15.7886 26.5303 15.9995 26 16V11H28V14Z" fill="black"/>
<path d="M43.4219 23.92H46.7219V14.54L43.4219 16.88V14.4L46.8019 12H49.1219V23.92H51.8219V26H43.4219V23.92ZM59.1242 12H61.6042L66.0642 20.3L70.5242 12H72.9242V26H70.5242V16.2L66.8242 23.1H65.2242L61.5242 16.2V26H59.1242V12ZM76.5266 12H85.9266V14.08H78.9266V17.76H85.3266V19.84H78.9266V23.92H85.9266V26H76.5266V12ZM94.1336 26.22C93.2669 26.22 92.4603 26.0867 91.7136 25.82C90.9803 25.5533 90.3403 25.1333 89.7936 24.56C89.2469 23.9867 88.8136 23.2533 88.4936 22.36C88.1869 21.4533 88.0336 20.3667 88.0336 19.1V18.7C88.0336 17.4867 88.1936 16.4467 88.5136 15.58C88.8336 14.7 89.2669 13.98 89.8136 13.42C90.3736 12.86 91.0203 12.4467 91.7536 12.18C92.5003 11.9133 93.2936 11.78 94.1336 11.78C94.9069 11.78 95.6269 11.88 96.2936 12.08C96.9603 12.2667 97.5403 12.5533 98.0336 12.94C98.5403 13.3267 98.9469 13.8067 99.2536 14.38C99.5736 14.9533 99.7669 15.6267 99.8336 16.4H97.3136C97.1403 15.5333 96.7669 14.9 96.1936 14.5C95.6336 14.1 94.9469 13.9 94.1336 13.9C93.6936 13.9 93.2603 13.98 92.8336 14.14C92.4069 14.3 92.0203 14.5667 91.6736 14.94C91.3403 15.3133 91.0669 15.8067 90.8536 16.42C90.6536 17.0333 90.5536 17.7933 90.5536 18.7V19.1C90.5536 20.06 90.6603 20.86 90.8736 21.5C91.1003 22.14 91.3869 22.6533 91.7336 23.04C92.0803 23.4267 92.4603 23.7 92.8736 23.86C93.3003 24.02 93.7203 24.1 94.1336 24.1C95.0936 24.1 95.8336 23.88 96.3536 23.44C96.8869 22.9867 97.2069 22.3733 97.3136 21.6H99.8336C99.7536 22.4267 99.5536 23.1333 99.2336 23.72C98.9136 24.3067 98.5003 24.7867 97.9936 25.16C97.5003 25.52 96.9203 25.7867 96.2536 25.96C95.6003 26.1333 94.8936 26.22 94.1336 26.22ZM105.471 14.08H100.771V12H112.571V14.08H107.871V26H105.471V14.08ZM120.078 26.22C119.225 26.22 118.411 26.0867 117.638 25.82C116.865 25.5533 116.185 25.14 115.598 24.58C115.011 24.0067 114.545 23.2733 114.198 22.38C113.851 21.4733 113.678 20.38 113.678 19.1V18.7C113.678 17.4733 113.851 16.4267 114.198 15.56C114.545 14.68 115.011 13.96 115.598 13.4C116.185 12.84 116.865 12.4333 117.638 12.18C118.411 11.9133 119.225 11.78 120.078 11.78C120.931 11.78 121.745 11.9133 122.518 12.18C123.291 12.4333 123.971 12.84 124.558 13.4C125.145 13.96 125.611 14.68 125.958 15.56C126.305 16.4267 126.478 17.4733 126.478 18.7V19.1C126.478 20.38 126.305 21.4733 125.958 22.38C125.611 23.2733 125.145 24.0067 124.558 24.58C123.971 25.14 123.291 25.5533 122.518 25.82C121.745 26.0867 120.931 26.22 120.078 26.22ZM120.078 24.1C120.571 24.1 121.051 24.0133 121.518 23.84C121.985 23.6667 122.398 23.3867 122.758 23C123.118 22.6 123.405 22.08 123.618 21.44C123.845 20.8 123.958 20.02 123.958 19.1V18.7C123.958 17.82 123.845 17.08 123.618 16.48C123.405 15.8667 123.118 15.3733 122.758 15C122.398 14.6133 121.985 14.3333 121.518 14.16C121.051 13.9867 120.571 13.9 120.078 13.9C119.571 13.9 119.085 13.9867 118.618 14.16C118.151 14.3333 117.738 14.6133 117.378 15C117.018 15.3733 116.731 15.8667 116.518 16.48C116.305 17.08 116.198 17.82 116.198 18.7V19.1C116.198 20.02 116.305 20.8 116.518 21.44C116.731 22.08 117.018 22.6 117.378 23C117.738 23.3867 118.151 23.6667 118.618 23.84C119.085 24.0133 119.571 24.1 120.078 24.1Z" fill="black"/>
</svg>
