<svg width="136" height="36" viewBox="0 0 136 36" fill="none" xmlns="http://www.w3.org/2000/svg">
<rect width="136" height="36" fill="#DDEAEF"/>
<path d="M28 9H26V8C25.9995 7.46973 25.7886 6.96133 25.4136 6.58637C25.0387 6.21141 24.5303 6.00053 24 6H12C11.4697 6.00053 10.9613 6.21141 10.5864 6.58637C10.2114 6.96133 10.0005 7.46973 10 8V9H8C7.46973 9.00053 6.96133 9.21141 6.58637 9.58637C6.21141 9.96133 6.00053 10.4697 6 11V14C6.00132 15.0605 6.42318 16.0771 7.17303 16.827C7.92289 17.5768 8.93954 17.9987 10 18H10.322C10.7387 19.5307 11.5921 20.907 12.778 21.9607C13.9639 23.0145 15.4309 23.7002 17 23.934V28H12V30H24V28H19V23.931C20.5895 23.7345 22.0828 23.0635 23.2851 22.0055C24.4875 20.9474 25.343 19.5516 25.74 18H26C27.0605 17.9987 28.0771 17.5768 28.827 16.827C29.5768 16.0771 29.9987 15.0605 30 14V11C29.9995 10.4697 29.7886 9.96133 29.4136 9.58637C29.0387 9.21141 28.5303 9.00053 28 9ZM10 16C9.46973 15.9995 8.96133 15.7886 8.58637 15.4136C8.21141 15.0387 8.00053 14.5303 8 14V11H10V16ZM24 16C24 16.8036 23.8386 17.599 23.5253 18.339C23.212 19.079 22.7533 19.7485 22.1763 20.3078C21.5994 20.8672 20.9159 21.3049 20.1666 21.5951C19.4172 21.8852 18.6172 22.0219 17.814 21.997C16.2218 21.8979 14.7291 21.1889 13.6462 20.0174C12.5634 18.8459 11.9738 17.3021 12 15.707V8H24V16ZM28 14C27.9995 14.5303 27.7886 15.0387 27.4136 15.4136C27.0387 15.7886 26.5303 15.9995 26 16V11H28V14Z" fill="black"/>
<path d="M43.1746 24.12L48.3946 19.6C48.8213 19.2267 49.1813 18.8933 49.4746 18.6C49.7813 18.3067 50.0279 18.0333 50.2146 17.78C50.4146 17.5133 50.5546 17.2533 50.6346 17C50.7279 16.7467 50.7746 16.48 50.7746 16.2C50.7746 15.52 50.5679 14.9667 50.1546 14.54C49.7546 14.1133 49.1946 13.9 48.4746 13.9C47.6213 13.9 46.9546 14.1333 46.4746 14.6C46.0079 15.0533 45.7746 15.7533 45.7746 16.7H43.3746C43.3746 15.9667 43.4946 15.3 43.7346 14.7C43.9746 14.0867 44.3146 13.5667 44.7546 13.14C45.1946 12.7 45.7279 12.3667 46.3546 12.14C46.9813 11.9 47.6879 11.78 48.4746 11.78C49.2346 11.78 49.9079 11.8933 50.4946 12.12C51.0813 12.3333 51.5679 12.64 51.9546 13.04C52.3546 13.4267 52.6546 13.8933 52.8546 14.44C53.0679 14.9733 53.1746 15.56 53.1746 16.2C53.1746 16.68 53.0946 17.1333 52.9346 17.56C52.7879 17.9867 52.5746 18.3933 52.2946 18.78C52.0279 19.1667 51.7013 19.5467 51.3146 19.92C50.9413 20.2933 50.5279 20.66 50.0746 21.02L46.5146 23.92H53.3746V26H43.1746V24.12ZM61.0715 12H63.5515L68.0115 20.3L72.4715 12H74.8715V26H72.4715V16.2L68.7715 23.1H67.1715L63.4715 16.2V26H61.0715V12ZM78.4738 12H87.8738V14.08H80.8738V17.76H87.2738V19.84H80.8738V23.92H87.8738V26H78.4738V12ZM96.0809 26.22C95.2142 26.22 94.4075 26.0867 93.6609 25.82C92.9275 25.5533 92.2875 25.1333 91.7409 24.56C91.1942 23.9867 90.7609 23.2533 90.4409 22.36C90.1342 21.4533 89.9809 20.3667 89.9809 19.1V18.7C89.9809 17.4867 90.1409 16.4467 90.4609 15.58C90.7809 14.7 91.2142 13.98 91.7609 13.42C92.3209 12.86 92.9675 12.4467 93.7009 12.18C94.4475 11.9133 95.2409 11.78 96.0809 11.78C96.8542 11.78 97.5742 11.88 98.2409 12.08C98.9075 12.2667 99.4875 12.5533 99.9809 12.94C100.488 13.3267 100.894 13.8067 101.201 14.38C101.521 14.9533 101.714 15.6267 101.781 16.4H99.2609C99.0875 15.5333 98.7142 14.9 98.1409 14.5C97.5809 14.1 96.8942 13.9 96.0809 13.9C95.6409 13.9 95.2075 13.98 94.7809 14.14C94.3542 14.3 93.9675 14.5667 93.6209 14.94C93.2875 15.3133 93.0142 15.8067 92.8009 16.42C92.6009 17.0333 92.5009 17.7933 92.5009 18.7V19.1C92.5009 20.06 92.6075 20.86 92.8209 21.5C93.0475 22.14 93.3342 22.6533 93.6809 23.04C94.0275 23.4267 94.4075 23.7 94.8209 23.86C95.2475 24.02 95.6675 24.1 96.0809 24.1C97.0409 24.1 97.7809 23.88 98.3009 23.44C98.8342 22.9867 99.1542 22.3733 99.2609 21.6H101.781C101.701 22.4267 101.501 23.1333 101.181 23.72C100.861 24.3067 100.448 24.7867 99.9409 25.16C99.4475 25.52 98.8675 25.7867 98.2009 25.96C97.5475 26.1333 96.8409 26.22 96.0809 26.22ZM107.418 14.08H102.718V12H114.518V14.08H109.818V26H107.418V14.08ZM122.025 26.22C121.172 26.22 120.359 26.0867 119.585 25.82C118.812 25.5533 118.132 25.14 117.545 24.58C116.959 24.0067 116.492 23.2733 116.145 22.38C115.799 21.4733 115.625 20.38 115.625 19.1V18.7C115.625 17.4733 115.799 16.4267 116.145 15.56C116.492 14.68 116.959 13.96 117.545 13.4C118.132 12.84 118.812 12.4333 119.585 12.18C120.359 11.9133 121.172 11.78 122.025 11.78C122.879 11.78 123.692 11.9133 124.465 12.18C125.239 12.4333 125.919 12.84 126.505 13.4C127.092 13.96 127.559 14.68 127.905 15.56C128.252 16.4267 128.425 17.4733 128.425 18.7V19.1C128.425 20.38 128.252 21.4733 127.905 22.38C127.559 23.2733 127.092 24.0067 126.505 24.58C125.919 25.14 125.239 25.5533 124.465 25.82C123.692 26.0867 122.879 26.22 122.025 26.22ZM122.025 24.1C122.519 24.1 122.999 24.0133 123.465 23.84C123.932 23.6667 124.345 23.3867 124.705 23C125.065 22.6 125.352 22.08 125.565 21.44C125.792 20.8 125.905 20.02 125.905 19.1V18.7C125.905 17.82 125.792 17.08 125.565 16.48C125.352 15.8667 125.065 15.3733 124.705 15C124.345 14.6133 123.932 14.3333 123.465 14.16C122.999 13.9867 122.519 13.9 122.025 13.9C121.519 13.9 121.032 13.9867 120.565 14.16C120.099 14.3333 119.685 14.6133 119.325 15C118.965 15.3733 118.679 15.8667 118.465 16.48C118.252 17.08 118.145 17.82 118.145 18.7V19.1C118.145 20.02 118.252 20.8 118.465 21.44C118.679 22.08 118.965 22.6 119.325 23C119.685 23.3867 120.099 23.6667 120.565 23.84C121.032 24.0133 121.519 24.1 122.025 24.1Z" fill="black"/>
</svg>
