<svg width="136" height="36" viewBox="0 0 136 36" fill="none" xmlns="http://www.w3.org/2000/svg">
<rect width="136" height="36" fill="#FF8329"/>
<path d="M28 9H26V8C25.9995 7.46973 25.7886 6.96133 25.4136 6.58637C25.0387 6.21141 24.5303 6.00053 24 6H12C11.4697 6.00053 10.9613 6.21141 10.5864 6.58637C10.2114 6.96133 10.0005 7.46973 10 8V9H8C7.46973 9.00053 6.96133 9.21141 6.58637 9.58637C6.21141 9.96133 6.00053 10.4697 6 11V14C6.00132 15.0605 6.42318 16.0771 7.17303 16.827C7.92289 17.5768 8.93954 17.9987 10 18H10.322C10.7387 19.5307 11.5921 20.907 12.778 21.9607C13.9639 23.0145 15.4309 23.7002 17 23.934V28H12V30H24V28H19V23.931C20.5895 23.7345 22.0828 23.0635 23.2851 22.0055C24.4875 20.9474 25.343 19.5516 25.74 18H26C27.0605 17.9987 28.0771 17.5768 28.827 16.827C29.5768 16.0771 29.9987 15.0605 30 14V11C29.9995 10.4697 29.7886 9.96133 29.4136 9.58637C29.0387 9.21141 28.5303 9.00053 28 9ZM10 16C9.46973 15.9995 8.96133 15.7886 8.58637 15.4136C8.21141 15.0387 8.00053 14.5303 8 14V11H10V16ZM24 16C24 16.8036 23.8386 17.599 23.5253 18.339C23.212 19.079 22.7533 19.7485 22.1763 20.3078C21.5994 20.8672 20.9159 21.3049 20.1666 21.5951C19.4172 21.8852 18.6172 22.0219 17.814 21.997C16.2218 21.8979 14.7291 21.1889 13.6462 20.0174C12.5634 18.8459 11.9738 17.3021 12 15.707V8H24V16ZM28 14C27.9995 14.5303 27.7886 15.0387 27.4136 15.4136C27.0387 15.7886 26.5303 15.9995 26 16V11H28V14Z" fill="black"/>
<path d="M48.2258 26.22C47.4124 26.22 46.6924 26.12 46.0658 25.92C45.4524 25.7067 44.9324 25.4133 44.5058 25.04C44.0924 24.6667 43.7724 24.2267 43.5458 23.72C43.3324 23.2 43.2258 22.6267 43.2258 22H45.6258C45.6258 22.6667 45.8324 23.1867 46.2458 23.56C46.6724 23.92 47.3324 24.1 48.2258 24.1C49.0924 24.1 49.7391 23.92 50.1658 23.56C50.6058 23.1867 50.8258 22.6667 50.8258 22C50.8258 21.32 50.6258 20.7867 50.2258 20.4C49.8258 20 49.1591 19.8 48.2258 19.8H46.8258V17.8H48.2258C49.0258 17.8 49.6258 17.6333 50.0258 17.3C50.4258 16.9533 50.6258 16.46 50.6258 15.82C50.6258 15.18 50.4324 14.7 50.0458 14.38C49.6724 14.06 49.0658 13.9 48.2258 13.9C47.3991 13.9 46.7858 14.0667 46.3858 14.4C45.9991 14.7333 45.8058 15.2 45.8058 15.8H43.4058C43.4058 14.5867 43.8124 13.6133 44.6258 12.88C45.4524 12.1467 46.6524 11.78 48.2258 11.78C49.0124 11.78 49.7058 11.88 50.3058 12.08C50.9058 12.28 51.4058 12.5533 51.8058 12.9C52.2058 13.2333 52.5058 13.6267 52.7058 14.08C52.9191 14.5333 53.0258 15.02 53.0258 15.54C53.0258 16.34 52.8124 17.0133 52.3858 17.56C51.9591 18.0933 51.3724 18.4733 50.6258 18.7C51.4391 18.94 52.0724 19.3467 52.5258 19.92C52.9924 20.48 53.2258 21.24 53.2258 22.2C53.2258 22.76 53.1191 23.2867 52.9058 23.78C52.6924 24.2733 52.3724 24.7 51.9458 25.06C51.5324 25.42 51.0124 25.7067 50.3858 25.92C49.7591 26.12 49.0391 26.22 48.2258 26.22ZM61.1203 12H63.6003L68.0603 20.3L72.5203 12H74.9203V26H72.5203V16.2L68.8203 23.1H67.2203L63.5203 16.2V26H61.1203V12ZM78.5227 12H87.9227V14.08H80.9227V17.76H87.3227V19.84H80.9227V23.92H87.9227V26H78.5227V12ZM96.1297 26.22C95.263 26.22 94.4564 26.0867 93.7097 25.82C92.9764 25.5533 92.3364 25.1333 91.7897 24.56C91.243 23.9867 90.8097 23.2533 90.4897 22.36C90.183 21.4533 90.0297 20.3667 90.0297 19.1V18.7C90.0297 17.4867 90.1897 16.4467 90.5097 15.58C90.8297 14.7 91.263 13.98 91.8097 13.42C92.3697 12.86 93.0164 12.4467 93.7497 12.18C94.4964 11.9133 95.2897 11.78 96.1297 11.78C96.903 11.78 97.623 11.88 98.2897 12.08C98.9564 12.2667 99.5364 12.5533 100.03 12.94C100.536 13.3267 100.943 13.8067 101.25 14.38C101.57 14.9533 101.763 15.6267 101.83 16.4H99.3097C99.1364 15.5333 98.763 14.9 98.1897 14.5C97.6297 14.1 96.943 13.9 96.1297 13.9C95.6897 13.9 95.2564 13.98 94.8297 14.14C94.403 14.3 94.0164 14.5667 93.6697 14.94C93.3364 15.3133 93.063 15.8067 92.8497 16.42C92.6497 17.0333 92.5497 17.7933 92.5497 18.7V19.1C92.5497 20.06 92.6564 20.86 92.8697 21.5C93.0964 22.14 93.383 22.6533 93.7297 23.04C94.0764 23.4267 94.4564 23.7 94.8697 23.86C95.2964 24.02 95.7164 24.1 96.1297 24.1C97.0897 24.1 97.8297 23.88 98.3497 23.44C98.883 22.9867 99.203 22.3733 99.3097 21.6H101.83C101.75 22.4267 101.55 23.1333 101.23 23.72C100.91 24.3067 100.496 24.7867 99.9897 25.16C99.4964 25.52 98.9164 25.7867 98.2497 25.96C97.5964 26.1333 96.8897 26.22 96.1297 26.22ZM107.467 14.08H102.767V12H114.567V14.08H109.867V26H107.467V14.08ZM122.074 26.22C121.221 26.22 120.408 26.0867 119.634 25.82C118.861 25.5533 118.181 25.14 117.594 24.58C117.008 24.0067 116.541 23.2733 116.194 22.38C115.848 21.4733 115.674 20.38 115.674 19.1V18.7C115.674 17.4733 115.848 16.4267 116.194 15.56C116.541 14.68 117.008 13.96 117.594 13.4C118.181 12.84 118.861 12.4333 119.634 12.18C120.408 11.9133 121.221 11.78 122.074 11.78C122.928 11.78 123.741 11.9133 124.514 12.18C125.288 12.4333 125.968 12.84 126.554 13.4C127.141 13.96 127.608 14.68 127.954 15.56C128.301 16.4267 128.474 17.4733 128.474 18.7V19.1C128.474 20.38 128.301 21.4733 127.954 22.38C127.608 23.2733 127.141 24.0067 126.554 24.58C125.968 25.14 125.288 25.5533 124.514 25.82C123.741 26.0867 122.928 26.22 122.074 26.22ZM122.074 24.1C122.568 24.1 123.048 24.0133 123.514 23.84C123.981 23.6667 124.394 23.3867 124.754 23C125.114 22.6 125.401 22.08 125.614 21.44C125.841 20.8 125.954 20.02 125.954 19.1V18.7C125.954 17.82 125.841 17.08 125.614 16.48C125.401 15.8667 125.114 15.3733 124.754 15C124.394 14.6133 123.981 14.3333 123.514 14.16C123.048 13.9867 122.568 13.9 122.074 13.9C121.568 13.9 121.081 13.9867 120.614 14.16C120.148 14.3333 119.734 14.6133 119.374 15C119.014 15.3733 118.728 15.8667 118.514 16.48C118.301 17.08 118.194 17.82 118.194 18.7V19.1C118.194 20.02 118.301 20.8 118.514 21.44C118.728 22.08 119.014 22.6 119.374 23C119.734 23.3867 120.148 23.6667 120.614 23.84C121.081 24.0133 121.568 24.1 122.074 24.1Z" fill="black"/>
</svg>
