<svg width="175" height="36" viewBox="0 0 175 36" fill="none" xmlns="http://www.w3.org/2000/svg">
<rect width="175" height="36" fill="black"/>
<path d="M18 8.52L20.76 14.1L21.22 15.1L22.22 15.25L28.38 16.14L24 20.44L23.25 21.17L23.43 22.17L24.48 28.3L18.97 25.41L18 25L17.07 25.49L11.56 28.34L12.56 22.21L12.74 21.21L12 20.44L7.58003 16.09L13.74 15.2L14.74 15.05L15.2 14.05L18 8.52ZM18 4L13.45 13.22L3.28003 14.69L10.64 21.87L8.90003 32L18 27.22L27.1 32L25.36 21.87L32.72 14.7L22.55 13.22L18 4Z" fill="white"/>
<path d="M46.5922 26.22C46.4455 26.22 46.2989 26.2133 46.1522 26.2C46.0189 26.2 45.8989 26.1933 45.7922 26.18V24.04C45.8989 24.0533 46.0189 24.0667 46.1522 24.08C46.2989 24.0933 46.4455 24.1 46.5922 24.1C46.8589 24.1 47.0922 24.08 47.2922 24.04C47.4922 24 47.6655 23.9267 47.8122 23.82C47.9589 23.7133 48.0922 23.5667 48.2122 23.38C48.3322 23.1933 48.4455 22.96 48.5522 22.68L42.7922 12H45.5922L49.8122 20.1L53.3122 12H55.7922L50.8722 23.04C50.6189 23.6 50.3589 24.0867 50.0922 24.5C49.8389 24.9 49.5455 25.2267 49.2122 25.48C48.8922 25.7333 48.5189 25.92 48.0922 26.04C47.6655 26.16 47.1655 26.22 46.5922 26.22ZM65.3859 20.12C65.0393 20.3333 64.5526 20.5267 63.9259 20.7C63.2993 20.8733 62.5859 20.96 61.7859 20.96C60.2126 20.96 59.0526 20.5867 58.3059 19.84C57.5593 19.0933 57.1859 17.9133 57.1859 16.3V12H59.5859V16.1C59.5859 17.06 59.7993 17.76 60.2259 18.2C60.6659 18.6267 61.3526 18.84 62.2859 18.84C63.0059 18.84 63.6259 18.76 64.1459 18.6C64.6659 18.4267 65.0793 18.24 65.3859 18.04V12H67.7859V26H65.3859V20.12ZM79.142 22.84H73.462L72.282 26H69.882L75.182 12H77.582L82.882 26H80.322L79.142 22.84ZM74.242 20.76H78.362L76.322 15L74.242 20.76ZM89.9852 26.22C89.1185 26.22 88.3118 26.0867 87.5652 25.82C86.8318 25.5533 86.1918 25.1333 85.6452 24.56C85.0985 23.9867 84.6652 23.2533 84.3452 22.36C84.0385 21.4533 83.8852 20.3667 83.8852 19.1V18.7C83.8852 17.4867 84.0452 16.4467 84.3652 15.58C84.6852 14.7 85.1185 13.98 85.6652 13.42C86.2252 12.86 86.8718 12.4467 87.6052 12.18C88.3518 11.9133 89.1452 11.78 89.9852 11.78C90.7585 11.78 91.4785 11.88 92.1452 12.08C92.8118 12.2667 93.3918 12.5533 93.8852 12.94C94.3918 13.3267 94.7985 13.8067 95.1052 14.38C95.4252 14.9533 95.6185 15.6267 95.6852 16.4H93.1652C92.9918 15.5333 92.6185 14.9 92.0452 14.5C91.4852 14.1 90.7985 13.9 89.9852 13.9C89.5452 13.9 89.1118 13.98 88.6852 14.14C88.2585 14.3 87.8718 14.5667 87.5252 14.94C87.1918 15.3133 86.9185 15.8067 86.7052 16.42C86.5052 17.0333 86.4052 17.7933 86.4052 18.7V19.1C86.4052 20.06 86.5118 20.86 86.7252 21.5C86.9518 22.14 87.2385 22.6533 87.5852 23.04C87.9318 23.4267 88.3118 23.7 88.7252 23.86C89.1518 24.02 89.5718 24.1 89.9852 24.1C90.9452 24.1 91.6852 23.88 92.2052 23.44C92.7385 22.9867 93.0585 22.3733 93.1652 21.6H95.6852C95.6052 22.4267 95.4052 23.1333 95.0852 23.72C94.7652 24.3067 94.3518 24.7867 93.8452 25.16C93.3518 25.52 92.7718 25.7867 92.1052 25.96C91.4518 26.1333 90.7452 26.22 89.9852 26.22ZM101.323 14.08H96.6227V12H108.423V14.08H103.723V26H101.323V14.08ZM110.62 12H113.02V17.76H119.82V12H122.22V26H119.82V19.84H113.02V26H110.62V12ZM125.816 12H128.216V22.2L135.096 12H137.416V26H135.016V15.8L128.136 26H125.816V12ZM141.011 12H143.411V17.86H144.811L149.891 12H152.611L146.711 18.66L152.811 26H149.891L144.811 19.74H143.411V26H141.011V12ZM155.113 12H157.513V22.2L164.393 12H166.713V26H164.313V15.8L157.433 26H155.113V12Z" fill="white"/>
</svg>
