<svg width="104" height="36" viewBox="0 0 104 36" fill="none" xmlns="http://www.w3.org/2000/svg">
<rect width="104" height="36" fill="white"/>
<path d="M16 25H24V27H16V25ZM12 25H14V27H12V25ZM16 20H24V22H16V20ZM12 20H14V22H12V20ZM16 15H24V17H16V15ZM12 15H14V17H12V15Z" fill="black"/>
<path d="M27 7H24V6C24 5.46957 23.7893 4.96086 23.4142 4.58579C23.0391 4.21071 22.5304 4 22 4H14C13.4696 4 12.9609 4.21071 12.5858 4.58579C12.2107 4.96086 12 5.46957 12 6V7H9C8.46957 7 7.96086 7.21071 7.58579 7.58579C7.21071 7.96086 7 8.46957 7 9V30C7 30.5304 7.21071 31.0391 7.58579 31.4142C7.96086 31.7893 8.46957 32 9 32H27C27.5304 32 28.0391 31.7893 28.4142 31.4142C28.7893 31.0391 29 30.5304 29 30V9C29 8.46957 28.7893 7.96086 28.4142 7.58579C28.0391 7.21071 27.5304 7 27 7ZM14 6H22V10H14V6ZM27 30H9V9H12V12H24V9H27V30Z" fill="black"/>
<path d="M44.0949 12H46.4949V17.86H47.8949L52.9749 12H55.6949L49.7949 18.66L55.8949 26H52.9749L47.8949 19.74H46.4949V26H44.0949V12ZM58.1965 12H67.5965V14.08H60.5965V17.76H66.9965V19.84H60.5965V23.92H67.5965V26H58.1965V12ZM70.5012 12H72.9012V22.2L79.7812 12H82.1012V26H79.7012V15.8L72.8212 26H70.5012V12ZM76.3012 11.1C75.0612 11.1 74.1478 10.8267 73.5612 10.28C72.9878 9.73333 72.7012 8.94 72.7012 7.9H74.9012C74.9012 8.51333 75.0145 8.94667 75.2412 9.2C75.4812 9.45333 75.8345 9.58 76.3012 9.58C76.7678 9.58 77.1145 9.45333 77.3412 9.2C77.5812 8.94667 77.7012 8.51333 77.7012 7.9H79.9012C79.9012 8.94 79.6078 9.73333 79.0212 10.28C78.4478 10.8267 77.5412 11.1 76.3012 11.1ZM91.0965 26.22C90.2298 26.22 89.4232 26.0867 88.6765 25.82C87.9432 25.5533 87.3032 25.1333 86.7565 24.56C86.2098 23.9867 85.7765 23.2533 85.4565 22.36C85.1498 21.4533 84.9965 20.3667 84.9965 19.1V18.7C84.9965 17.4867 85.1565 16.4467 85.4765 15.58C85.7965 14.7 86.2298 13.98 86.7765 13.42C87.3365 12.86 87.9832 12.4467 88.7165 12.18C89.4632 11.9133 90.2565 11.78 91.0965 11.78C91.8698 11.78 92.5898 11.88 93.2565 12.08C93.9232 12.2667 94.5032 12.5533 94.9965 12.94C95.5032 13.3267 95.9098 13.8067 96.2165 14.38C96.5365 14.9533 96.7298 15.6267 96.7965 16.4H94.2765C94.1032 15.5333 93.7298 14.9 93.1565 14.5C92.5965 14.1 91.9098 13.9 91.0965 13.9C90.6565 13.9 90.2232 13.98 89.7965 14.14C89.3698 14.3 88.9832 14.5667 88.6365 14.94C88.3032 15.3133 88.0298 15.8067 87.8165 16.42C87.6165 17.0333 87.5165 17.7933 87.5165 18.7V19.1C87.5165 20.06 87.6232 20.86 87.8365 21.5C88.0632 22.14 88.3498 22.6533 88.6965 23.04C89.0432 23.4267 89.4232 23.7 89.8365 23.86C90.2632 24.02 90.6832 24.1 91.0965 24.1C92.0565 24.1 92.7965 23.88 93.3165 23.44C93.8498 22.9867 94.1698 22.3733 94.2765 21.6H96.7965C96.7165 22.4267 96.5165 23.1333 96.1965 23.72C95.8765 24.3067 95.4632 24.7867 94.9565 25.16C94.4632 25.52 93.8832 25.7867 93.2165 25.96C92.5632 26.1333 91.8565 26.22 91.0965 26.22Z" fill="black"/>
</svg>
