<svg width="195" height="36" viewBox="0 0 195 36" fill="none" xmlns="http://www.w3.org/2000/svg">
<path d="M23 25C24.1046 25 25 24.1046 25 23C25 21.8954 24.1046 21 23 21C21.8954 21 21 21.8954 21 23C21 24.1046 21.8954 25 23 25Z" fill="#F4D424"/>
<path d="M9 11C10.1046 11 11 10.1046 11 9C11 7.89543 10.1046 7 9 7C7.89543 7 7 7.89543 7 9C7 10.1046 7.89543 11 9 11Z" fill="#F4D424"/>
<path d="M29 33C28.2089 33 27.4355 32.7654 26.7777 32.3259C26.1199 31.8864 25.6072 31.2616 25.3045 30.5307C25.0017 29.7998 24.9225 28.9956 25.0769 28.2196C25.2312 27.4437 25.6122 26.731 26.1716 26.1716C26.731 25.6122 27.4437 25.2312 28.2196 25.0769C28.9956 24.9225 29.7998 25.0017 30.5307 25.3045C31.2616 25.6072 31.8864 26.1199 32.3259 26.7777C32.7654 27.4355 33 28.2089 33 29C32.9968 30.0599 32.5744 31.0755 31.8249 31.8249C31.0755 32.5744 30.0599 32.9968 29 33ZM29 27C28.6044 27 28.2178 27.1173 27.8889 27.3371C27.56 27.5568 27.3036 27.8692 27.1522 28.2346C27.0009 28.6001 26.9613 29.0022 27.0384 29.3902C27.1156 29.7781 27.3061 30.1345 27.5858 30.4142C27.8655 30.6939 28.2219 30.8844 28.6098 30.9616C28.9978 31.0387 29.3999 30.9991 29.7654 30.8478C30.1308 30.6964 30.4432 30.44 30.6629 30.1111C30.8827 29.7822 31 29.3956 31 29C30.9984 28.4701 30.7872 27.9623 30.4125 27.5875C30.0377 27.2128 29.5299 27.0016 29 27Z" fill="#F4D424"/>
<path d="M32 18C31.9892 14.2903 30.5107 10.7356 27.8875 8.11244C25.2644 5.48927 21.7097 4.0108 18 3.99998C15.6113 3.96591 13.259 4.58856 11.2 5.79998L12.3 7.49998C13.0817 7.12428 13.8828 6.79047 14.7 6.49998C13.0469 9.7619 12.1255 13.3452 12 17H6C6.11205 15.3488 6.59028 13.7433 7.4 12.3L5.9 11C4.65572 13.123 3.99987 15.5392 4 18C3.99974 19.8386 4.36168 21.6592 5.06515 23.3579C5.76862 25.0565 6.79985 26.6 8.09992 27.9001C9.39999 29.2001 10.9434 30.2314 12.6421 30.9348C14.3408 31.6383 16.1614 32.0002 18 32C19.7827 32.0168 21.5507 31.6768 23.2 31L22.6 29.1C20.9605 29.8011 19.1798 30.1093 17.4 30C15.2675 26.7201 14.0902 22.9112 14 19H31.9C31.9827 18.6734 32.0164 18.3364 32 18ZM14.8 29.6C12.8115 29.004 10.9943 27.9411 9.5 26.5C7.51585 24.4697 6.28155 21.8248 6 19H12C12.1376 22.697 13.0939 26.3173 14.8 29.6ZM14 17C14.0795 13.1015 15.2204 9.29847 17.3 5.99998H18.7C20.7796 9.29847 21.9205 13.1015 22 17H14ZM24 17C23.9239 13.2941 22.964 9.66 21.2 6.39998C23.5529 7.07816 25.6444 8.45469 27.1979 10.3475C28.7514 12.2402 29.6937 14.56 29.9 17H24Z" fill="#F4D424"/>
<path d="M42.8434 23.92H44.3434C44.5967 23.4267 44.7967 22.8333 44.9434 22.14C45.1034 21.4333 45.2234 20.68 45.3034 19.88C45.3967 19.08 45.4567 18.26 45.4834 17.42C45.5234 16.58 45.5434 15.7733 45.5434 15V12H55.0234V23.92H56.6434V28.6H54.4434V26H45.0434V28.6H42.8434V23.92ZM52.6234 23.92V14.08H47.8634V15.4C47.8634 17.32 47.77 18.9667 47.5834 20.34C47.3967 21.7133 47.13 22.9067 46.7834 23.92H52.6234ZM59.048 12H68.448V14.08H61.448V17.76H67.848V19.84H61.448V23.92H68.448V26H59.048V12ZM71.3527 12H73.8327L78.2927 20.3L82.7527 12H85.1527V26H82.7527V16.2L79.0527 23.1H77.4527L73.7527 16.2V26H71.3527V12ZM94.4551 26.22C93.6017 26.22 92.7884 26.0867 92.0151 25.82C91.2417 25.5533 90.5617 25.14 89.9751 24.58C89.3884 24.0067 88.9217 23.2733 88.5751 22.38C88.2284 21.4733 88.0551 20.38 88.0551 19.1V18.7C88.0551 17.4733 88.2284 16.4267 88.5751 15.56C88.9217 14.68 89.3884 13.96 89.9751 13.4C90.5617 12.84 91.2417 12.4333 92.0151 12.18C92.7884 11.9133 93.6017 11.78 94.4551 11.78C95.3084 11.78 96.1217 11.9133 96.8951 12.18C97.6684 12.4333 98.3484 12.84 98.9351 13.4C99.5217 13.96 99.9884 14.68 100.335 15.56C100.682 16.4267 100.855 17.4733 100.855 18.7V19.1C100.855 20.38 100.682 21.4733 100.335 22.38C99.9884 23.2733 99.5217 24.0067 98.9351 24.58C98.3484 25.14 97.6684 25.5533 96.8951 25.82C96.1217 26.0867 95.3084 26.22 94.4551 26.22ZM94.4551 24.1C94.9484 24.1 95.4284 24.0133 95.8951 23.84C96.3617 23.6667 96.7751 23.3867 97.1351 23C97.4951 22.6 97.7817 22.08 97.9951 21.44C98.2217 20.8 98.3351 20.02 98.3351 19.1V18.7C98.3351 17.82 98.2217 17.08 97.9951 16.48C97.7817 15.8667 97.4951 15.3733 97.1351 15C96.7751 14.6133 96.3617 14.3333 95.8951 14.16C95.4284 13.9867 94.9484 13.9 94.4551 13.9C93.9484 13.9 93.4617 13.9867 92.9951 14.16C92.5284 14.3333 92.1151 14.6133 91.7551 15C91.3951 15.3733 91.1084 15.8667 90.8951 16.48C90.6817 17.08 90.5751 17.82 90.5751 18.7V19.1C90.5751 20.02 90.6817 20.8 90.8951 21.44C91.1084 22.08 91.3951 22.6 91.7551 23C92.1151 23.3867 92.5284 23.6667 92.9951 23.84C93.4617 24.0133 93.9484 24.1 94.4551 24.1ZM108.755 12H114.355C115.942 12 117.102 12.34 117.835 13.02C118.582 13.7 118.955 14.6067 118.955 15.74C118.955 16.46 118.768 17.08 118.395 17.6C118.022 18.1067 117.508 18.4733 116.855 18.7C117.682 18.8867 118.335 19.2667 118.815 19.84C119.308 20.4 119.555 21.1333 119.555 22.04C119.555 22.6267 119.462 23.1667 119.275 23.66C119.088 24.14 118.795 24.5533 118.395 24.9C118.008 25.2467 117.508 25.52 116.895 25.72C116.282 25.9067 115.542 26 114.675 26H108.755V12ZM114.415 23.92C115.455 23.92 116.168 23.7533 116.555 23.42C116.955 23.0867 117.155 22.5733 117.155 21.88C117.155 21.5467 117.108 21.2467 117.015 20.98C116.922 20.7133 116.768 20.4933 116.555 20.32C116.342 20.1333 116.055 19.9933 115.695 19.9C115.348 19.8067 114.915 19.76 114.395 19.76H111.155V23.92H114.415ZM114.055 17.84C114.988 17.84 115.635 17.6667 115.995 17.32C116.368 16.9733 116.555 16.5067 116.555 15.92C116.555 15.32 116.375 14.8667 116.015 14.56C115.655 14.24 115.002 14.08 114.055 14.08H111.155V17.84H114.055ZM122.251 12H131.651V14.08H124.651V17.76H131.051V19.84H124.651V23.92H131.651V26H122.251V12ZM134.556 12H139.656C141.536 12 142.923 12.4067 143.816 13.22C144.709 14.02 145.156 15.1 145.156 16.46C145.156 17.82 144.709 18.9067 143.816 19.72C142.923 20.52 141.536 20.92 139.656 20.92H136.956V26H134.556V12ZM139.456 18.84C140.083 18.84 140.609 18.7933 141.036 18.7C141.463 18.5933 141.803 18.4467 142.056 18.26C142.309 18.06 142.489 17.8133 142.596 17.52C142.703 17.2133 142.756 16.86 142.756 16.46C142.756 16.06 142.703 15.7133 142.596 15.42C142.489 15.1267 142.309 14.88 142.056 14.68C141.803 14.48 141.463 14.3333 141.036 14.24C140.609 14.1333 140.083 14.08 139.456 14.08H136.956V18.84H139.456ZM153.159 26.22C152.292 26.22 151.486 26.0867 150.739 25.82C150.006 25.5533 149.366 25.1333 148.819 24.56C148.272 23.9867 147.839 23.2533 147.519 22.36C147.212 21.4533 147.059 20.3667 147.059 19.1V18.7C147.059 17.4867 147.219 16.4467 147.539 15.58C147.859 14.7 148.292 13.98 148.839 13.42C149.399 12.86 150.046 12.4467 150.779 12.18C151.526 11.9133 152.319 11.78 153.159 11.78C153.932 11.78 154.652 11.88 155.319 12.08C155.986 12.2667 156.566 12.5533 157.059 12.94C157.566 13.3267 157.972 13.8067 158.279 14.38C158.599 14.9533 158.792 15.6267 158.859 16.4H156.339C156.166 15.5333 155.792 14.9 155.219 14.5C154.659 14.1 153.972 13.9 153.159 13.9C152.719 13.9 152.286 13.98 151.859 14.14C151.432 14.3 151.046 14.5667 150.699 14.94C150.366 15.3133 150.092 15.8067 149.879 16.42C149.679 17.0333 149.579 17.7933 149.579 18.7V19.1C149.579 20.06 149.686 20.86 149.899 21.5C150.126 22.14 150.412 22.6533 150.759 23.04C151.106 23.4267 151.486 23.7 151.899 23.86C152.326 24.02 152.746 24.1 153.159 24.1C154.119 24.1 154.859 23.88 155.379 23.44C155.912 22.9867 156.232 22.3733 156.339 21.6H158.859C158.779 22.4267 158.579 23.1333 158.259 23.72C157.939 24.3067 157.526 24.7867 157.019 25.16C156.526 25.52 155.946 25.7867 155.279 25.96C154.626 26.1333 153.919 26.22 153.159 26.22ZM161.568 12H163.968V22.2L170.848 12H173.168V26H170.768V15.8L163.888 26H161.568V12ZM179.283 20.36C178.243 20.0533 177.463 19.5533 176.943 18.86C176.423 18.1533 176.163 17.32 176.163 16.36C176.163 15.72 176.276 15.1333 176.503 14.6C176.73 14.0667 177.063 13.6067 177.503 13.22C177.943 12.8333 178.49 12.5333 179.143 12.32C179.81 12.1067 180.583 12 181.463 12H186.763V26H184.363V20.64H181.423L178.323 26H175.763L179.283 20.36ZM178.563 16.36C178.563 17.08 178.803 17.64 179.283 18.04C179.776 18.44 180.636 18.64 181.863 18.64H184.363V14.08H181.863C180.636 14.08 179.776 14.28 179.283 14.68C178.803 15.08 178.563 15.64 178.563 16.36Z" fill="#F4D424"/>
</svg>
