<svg width="203" height="36" viewBox="0 0 203 36" fill="none" xmlns="http://www.w3.org/2000/svg">
<rect width="203" height="36" fill="white"/>
<path d="M10 12H20V14H10V12ZM10 17H16V19H10V17Z" fill="black"/>
<path d="M31 31H5V5H31V31ZM7 29H29V7H7V29Z" fill="black"/>
<path d="M43.8 12H46.28L50.74 20.3L55.2 12H57.6V26H55.2V16.2L51.5 23.1H49.9L46.2 16.2V26H43.8V12ZM61.2023 12H70.6023V14.08H63.6023V17.76H70.0023V19.84H63.6023V23.92H70.6023V26H61.2023V12ZM73.507 12H78.607C80.487 12 81.8737 12.4067 82.767 13.22C83.6604 14.02 84.107 15.1 84.107 16.46C84.107 17.82 83.6604 18.9067 82.767 19.72C81.8737 20.52 80.487 20.92 78.607 20.92H75.907V26H73.507V12ZM78.407 18.84C79.0337 18.84 79.5604 18.7933 79.987 18.7C80.4137 18.5933 80.7537 18.4467 81.007 18.26C81.2604 18.06 81.4404 17.8133 81.547 17.52C81.6537 17.2133 81.707 16.86 81.707 16.46C81.707 16.06 81.6537 15.7133 81.547 15.42C81.4404 15.1267 81.2604 14.88 81.007 14.68C80.7537 14.48 80.4137 14.3333 79.987 14.24C79.5604 14.1333 79.0337 14.08 78.407 14.08H75.907V18.84H78.407ZM92.4102 26.22C91.5568 26.22 90.7435 26.0867 89.9702 25.82C89.1968 25.5533 88.5168 25.14 87.9302 24.58C87.3435 24.0067 86.8768 23.2733 86.5302 22.38C86.1835 21.4733 86.0102 20.38 86.0102 19.1V18.7C86.0102 17.4733 86.1835 16.4267 86.5302 15.56C86.8768 14.68 87.3435 13.96 87.9302 13.4C88.5168 12.84 89.1968 12.4333 89.9702 12.18C90.7435 11.9133 91.5568 11.78 92.4102 11.78C93.2635 11.78 94.0768 11.9133 94.8502 12.18C95.6235 12.4333 96.3035 12.84 96.8902 13.4C97.4768 13.96 97.9435 14.68 98.2902 15.56C98.6368 16.4267 98.8102 17.4733 98.8102 18.7V19.1C98.8102 20.38 98.6368 21.4733 98.2902 22.38C97.9435 23.2733 97.4768 24.0067 96.8902 24.58C96.3035 25.14 95.6235 25.5533 94.8502 25.82C94.0768 26.0867 93.2635 26.22 92.4102 26.22ZM92.4102 24.1C92.9035 24.1 93.3835 24.0133 93.8502 23.84C94.3168 23.6667 94.7302 23.3867 95.0902 23C95.4502 22.6 95.7368 22.08 95.9502 21.44C96.1768 20.8 96.2902 20.02 96.2902 19.1V18.7C96.2902 17.82 96.1768 17.08 95.9502 16.48C95.7368 15.8667 95.4502 15.3733 95.0902 15C94.7302 14.6133 94.3168 14.3333 93.8502 14.16C93.3835 13.9867 92.9035 13.9 92.4102 13.9C91.9035 13.9 91.4168 13.9867 90.9502 14.16C90.4835 14.3333 90.0702 14.6133 89.7102 15C89.3502 15.3733 89.0635 15.8667 88.8502 16.48C88.6368 17.08 88.5302 17.82 88.5302 18.7V19.1C88.5302 20.02 88.6368 20.8 88.8502 21.44C89.0635 22.08 89.3502 22.6 89.7102 23C90.0702 23.3867 90.4835 23.6667 90.9502 23.84C91.4168 24.0133 91.9035 24.1 92.4102 24.1ZM101.71 12H113.11V26H110.71V14.08H104.11V26H101.71V12ZM116.71 12H121.81C123.69 12 125.077 12.4067 125.97 13.22C126.863 14.02 127.31 15.1 127.31 16.46C127.31 17.82 126.863 18.9067 125.97 19.72C125.077 20.52 123.69 20.92 121.81 20.92H119.11V26H116.71V12ZM121.61 18.84C122.237 18.84 122.763 18.7933 123.19 18.7C123.617 18.5933 123.957 18.4467 124.21 18.26C124.463 18.06 124.643 17.8133 124.75 17.52C124.857 17.2133 124.91 16.86 124.91 16.46C124.91 16.06 124.857 15.7133 124.75 15.42C124.643 15.1267 124.463 14.88 124.21 14.68C123.957 14.48 123.617 14.3333 123.19 14.24C122.763 14.1333 122.237 14.08 121.61 14.08H119.11V18.84H121.61ZM129.913 12H132.313V22.2L139.193 12H141.513V26H139.113V15.8L132.233 26H129.913V12ZM147.629 20.36C146.589 20.0533 145.809 19.5533 145.289 18.86C144.769 18.1533 144.509 17.32 144.509 16.36C144.509 15.72 144.622 15.1333 144.849 14.6C145.075 14.0667 145.409 13.6067 145.849 13.22C146.289 12.8333 146.835 12.5333 147.489 12.32C148.155 12.1067 148.929 12 149.809 12H155.109V26H152.709V20.64H149.769L146.669 26H144.109L147.629 20.36ZM146.909 16.36C146.909 17.08 147.149 17.64 147.629 18.04C148.122 18.44 148.982 18.64 150.209 18.64H152.709V14.08H150.209C148.982 14.08 148.122 14.28 147.629 14.68C147.149 15.08 146.909 15.64 146.909 16.36ZM162.002 14.08H157.302V12H169.102V14.08H164.402V26H162.002V14.08ZM171.3 12H173.7V22.2L180.58 12H182.9V26H180.5V15.8L173.62 26H171.3V12ZM186.495 12H195.895V14.08H188.895V17.76H195.295V19.84H188.895V23.92H195.895V26H186.495V12Z" fill="black"/>
</svg>
