<svg width="158" height="36" viewBox="0 0 158 36" fill="none" xmlns="http://www.w3.org/2000/svg">
<rect width="158" height="36" fill="white"/>
<path d="M30 12H24V8C24 7.46957 23.7893 6.96086 23.4142 6.58579C23.0391 6.21071 22.5304 6 22 6H14C13.4696 6 12.9609 6.21071 12.5858 6.58579C12.2107 6.96086 12 7.46957 12 8V12H6C5.46957 12 4.96086 12.2107 4.58579 12.5858C4.21071 12.9609 4 13.4696 4 14V28C4 28.5304 4.21071 29.0391 4.58579 29.4142C4.96086 29.7893 5.46957 30 6 30H30C30.5304 30 31.0391 29.7893 31.4142 29.4142C31.7893 29.0391 32 28.5304 32 28V14C32 13.4696 31.7893 12.9609 31.4142 12.5858C31.0391 12.2107 30.5304 12 30 12ZM14 8H22V12H14V8ZM6 28V14H30V28H6Z" fill="black"/>
<path d="M48.5977 26.22C47.7177 26.22 46.9377 26.1133 46.2577 25.9C45.591 25.6867 45.0177 25.3867 44.5377 25C44.071 24.6133 43.7043 24.1533 43.4377 23.62C43.1843 23.0733 43.0377 22.4667 42.9977 21.8H45.5177C45.5977 22.48 45.8977 23.0333 46.4177 23.46C46.9377 23.8867 47.6643 24.1 48.5977 24.1C49.651 24.1 50.4243 23.9133 50.9177 23.54C51.4243 23.1667 51.6777 22.6333 51.6777 21.94C51.6777 21.2733 51.4377 20.7467 50.9577 20.36C50.4777 19.96 49.691 19.76 48.5977 19.76H46.8977V17.84H48.5977C49.451 17.84 50.091 17.6667 50.5177 17.32C50.9577 16.96 51.1777 16.4733 51.1777 15.86C51.1777 15.26 50.971 14.7867 50.5577 14.44C50.1577 14.08 49.5043 13.9 48.5977 13.9C47.7043 13.9 47.031 14.0733 46.5777 14.42C46.1377 14.7667 45.8843 15.26 45.8177 15.9H43.2977C43.391 14.6467 43.871 13.6467 44.7377 12.9C45.6043 12.1533 46.891 11.78 48.5977 11.78C50.3043 11.78 51.5777 12.1333 52.4177 12.84C53.271 13.5467 53.6977 14.52 53.6977 15.76C53.6977 16.4933 53.491 17.1133 53.0777 17.62C52.6643 18.1133 52.111 18.4733 51.4177 18.7C52.271 18.9 52.9443 19.28 53.4377 19.84C53.9443 20.4 54.1977 21.1333 54.1977 22.04C54.1977 22.6533 54.0777 23.22 53.8377 23.74C53.611 24.2467 53.2577 24.6867 52.7777 25.06C52.311 25.42 51.7243 25.7067 51.0177 25.92C50.3243 26.12 49.5177 26.22 48.5977 26.22ZM64.3725 22.84H58.6925L57.5125 26H55.1125L60.4125 12H62.8125L68.1125 26H65.5525L64.3725 22.84ZM59.4725 20.76H63.5925L61.5525 15L59.4725 20.76ZM70.2063 12H72.6063V17.86H74.0063L79.0863 12H81.8063L75.9063 18.66L82.0063 26H79.0863L74.0063 19.74H72.6063V26H70.2063V12ZM92.4584 22.84H86.7784L85.5984 26H83.1984L88.4984 12H90.8984L96.1984 26H93.6384L92.4584 22.84ZM87.5584 20.76H91.6784L89.6384 15L87.5584 20.76ZM102.602 26.22C101.722 26.22 100.942 26.1133 100.262 25.9C99.5949 25.6867 99.0216 25.3867 98.5416 25C98.0749 24.6133 97.7082 24.1533 97.4416 23.62C97.1882 23.0733 97.0416 22.4667 97.0016 21.8H99.5216C99.6016 22.48 99.9016 23.0333 100.422 23.46C100.942 23.8867 101.668 24.1 102.602 24.1C103.655 24.1 104.428 23.9133 104.922 23.54C105.428 23.1667 105.682 22.6333 105.682 21.94C105.682 21.2733 105.442 20.7467 104.962 20.36C104.482 19.96 103.695 19.76 102.602 19.76H100.902V17.84H102.602C103.455 17.84 104.095 17.6667 104.522 17.32C104.962 16.96 105.182 16.4733 105.182 15.86C105.182 15.26 104.975 14.7867 104.562 14.44C104.162 14.08 103.508 13.9 102.602 13.9C101.708 13.9 101.035 14.0733 100.582 14.42C100.142 14.7667 99.8882 15.26 99.8216 15.9H97.3016C97.3949 14.6467 97.8749 13.6467 98.7416 12.9C99.6082 12.1533 100.895 11.78 102.602 11.78C104.308 11.78 105.582 12.1333 106.422 12.84C107.275 13.5467 107.702 14.52 107.702 15.76C107.702 16.4933 107.495 17.1133 107.082 17.62C106.668 18.1133 106.115 18.4733 105.422 18.7C106.275 18.9 106.948 19.28 107.442 19.84C107.948 20.4 108.202 21.1333 108.202 22.04C108.202 22.6533 108.082 23.22 107.842 23.74C107.615 24.2467 107.262 24.6867 106.782 25.06C106.315 25.42 105.728 25.7067 105.022 25.92C104.328 26.12 103.522 26.22 102.602 26.22ZM118.409 20.12C118.063 20.3333 117.576 20.5267 116.949 20.7C116.323 20.8733 115.609 20.96 114.809 20.96C113.236 20.96 112.076 20.5867 111.329 19.84C110.583 19.0933 110.209 17.9133 110.209 16.3V12H112.609V16.1C112.609 17.06 112.823 17.76 113.249 18.2C113.689 18.6267 114.376 18.84 115.309 18.84C116.029 18.84 116.649 18.76 117.169 18.6C117.689 18.4267 118.103 18.24 118.409 18.04V12H120.809V26H118.409V20.12ZM124.405 12H126.805V22.2L133.685 12H136.005V26H133.605V15.8L126.725 26H124.405V12ZM139.601 12H142.001V17.86H143.401L148.481 12H151.201L145.301 18.66L151.401 26H148.481L143.401 19.74H142.001V26H139.601V12Z" fill="black"/>
</svg>
