<svg width="150" height="36" viewBox="0 0 150 36" fill="none" xmlns="http://www.w3.org/2000/svg">
<rect width="150" height="36" fill="white"/>
<path d="M18 4C15.2311 4 12.5243 4.82109 10.222 6.35943C7.91973 7.89777 6.12532 10.0843 5.06569 12.6424C4.00607 15.2006 3.72882 18.0155 4.26901 20.7313C4.80921 23.447 6.14258 25.9416 8.10051 27.8995C10.0584 29.8574 12.553 31.1908 15.2687 31.731C17.9845 32.2712 20.7994 31.9939 23.3576 30.9343C25.9157 29.8747 28.1022 28.0803 29.6406 25.778C31.1789 23.4757 32 20.7689 32 18C31.9958 14.2883 30.5194 10.7298 27.8948 8.10518C25.2702 5.48059 21.7117 4.00423 18 4ZM23 7.106C24.059 7.59413 25.0413 8.23384 25.916 9.005L25.503 10H23V7.106ZM15.378 29.703C13.214 29.2222 11.226 28.1502 9.63519 26.6064C8.0444 25.0626 6.9133 23.1076 6.36784 20.959C5.82237 18.8104 5.88395 16.5526 6.54571 14.4369C7.20746 12.3213 8.44344 10.4308 10.116 8.976L11.465 11H14.807L13.307 15H9.28001L7.89801 19.148L10.465 23H15.465L16.897 25.147L15.378 29.703ZM18 30C17.797 30 17.598 29.98 17.397 29.97L18.794 25.78C18.8911 25.4913 18.9206 25.1842 18.8802 24.8824C18.8398 24.5805 18.7306 24.292 18.561 24.039L17.129 21.891C16.9467 21.6167 16.6993 21.3918 16.409 21.2364C16.1186 21.0809 15.7943 20.9997 15.465 21H11.535L10.103 18.852L10.721 17H13V19H15V16.181L17.936 8.351L16.064 7.649L15.557 9H12.535L11.728 7.79C13.0959 6.93573 14.6245 6.37108 16.2193 6.13097C17.8141 5.89086 19.4412 5.98038 21 6.394V10C21.0005 10.5303 21.2114 11.0387 21.5864 11.4136C21.9613 11.7886 22.4697 11.9995 23 12H25.586C25.8487 12.0007 26.109 11.9493 26.3517 11.8487C26.5944 11.7481 26.8148 11.6004 27 11.414L27.14 11.274L27.422 10.594C28.2293 11.6195 28.8637 12.77 29.3 14H24.599C24.1262 13.9985 23.6683 14.1652 23.3071 14.4702C22.9459 14.7752 22.7048 15.1987 22.627 15.665L22.03 19.106C21.9577 19.5136 22.0143 19.9336 22.192 20.3075C22.3696 20.6814 22.6594 20.9906 23.021 21.192L25.186 22.656L26.644 26.302C25.5278 27.4705 24.1864 28.4006 22.7007 29.0362C21.215 29.6718 19.6159 29.9996 18 30ZM26.815 21.344L24.1 19.509L24 19.449L24.599 16H29.819C30.3429 18.9505 29.7189 21.9896 28.075 24.495L26.815 21.344Z" fill="black"/>
<path d="M43.3699 26.22C43.2633 26.22 43.1433 26.2133 43.0099 26.2C42.8899 26.2 42.7766 26.1867 42.6699 26.16V23.88C42.7366 23.8933 42.8366 23.9 42.9699 23.9C43.3433 23.9 43.6566 23.8133 43.9099 23.64C44.1633 23.4533 44.3699 23.0733 44.5299 22.5C44.6899 21.9133 44.8033 21.0733 44.8699 19.98C44.9366 18.8867 44.9699 17.4267 44.9699 15.6V12H54.7699V26H52.3699V14.08H47.2899V16C47.2899 18.1733 47.2033 19.9333 47.0299 21.28C46.8699 22.6133 46.6233 23.6467 46.2899 24.38C45.9699 25.1133 45.5633 25.6067 45.0699 25.86C44.5899 26.1 44.0233 26.22 43.3699 26.22ZM64.0645 26.22C63.2111 26.22 62.3978 26.0867 61.6245 25.82C60.8511 25.5533 60.1711 25.14 59.5845 24.58C58.9978 24.0067 58.5311 23.2733 58.1845 22.38C57.8378 21.4733 57.6645 20.38 57.6645 19.1V18.7C57.6645 17.4733 57.8378 16.4267 58.1845 15.56C58.5311 14.68 58.9978 13.96 59.5845 13.4C60.1711 12.84 60.8511 12.4333 61.6245 12.18C62.3978 11.9133 63.2111 11.78 64.0645 11.78C64.9178 11.78 65.7311 11.9133 66.5045 12.18C67.2778 12.4333 67.9578 12.84 68.5445 13.4C69.1311 13.96 69.5978 14.68 69.9445 15.56C70.2911 16.4267 70.4645 17.4733 70.4645 18.7V19.1C70.4645 20.38 70.2911 21.4733 69.9445 22.38C69.5978 23.2733 69.1311 24.0067 68.5445 24.58C67.9578 25.14 67.2778 25.5533 66.5045 25.82C65.7311 26.0867 64.9178 26.22 64.0645 26.22ZM64.0645 24.1C64.5578 24.1 65.0378 24.0133 65.5045 23.84C65.9711 23.6667 66.3845 23.3867 66.7445 23C67.1045 22.6 67.3911 22.08 67.6045 21.44C67.8311 20.8 67.9445 20.02 67.9445 19.1V18.7C67.9445 17.82 67.8311 17.08 67.6045 16.48C67.3911 15.8667 67.1045 15.3733 66.7445 15C66.3845 14.6133 65.9711 14.3333 65.5045 14.16C65.0378 13.9867 64.5578 13.9 64.0645 13.9C63.5578 13.9 63.0711 13.9867 62.6045 14.16C62.1378 14.3333 61.7245 14.6133 61.3645 15C61.0045 15.3733 60.7178 15.8667 60.5045 16.48C60.2911 17.08 60.1845 17.82 60.1845 18.7V19.1C60.1845 20.02 60.2911 20.8 60.5045 21.44C60.7178 22.08 61.0045 22.6 61.3645 23C61.7245 23.3867 62.1378 23.6667 62.6045 23.84C63.0711 24.0133 63.5578 24.1 64.0645 24.1ZM73.3645 12H75.7645V17.86H77.1645L82.2445 12H84.9645L79.0645 18.66L85.1645 26H82.2445L77.1645 19.74H75.7645V26H73.3645V12ZM95.6166 22.84H89.9366L88.7566 26H86.3566L91.6566 12H94.0566L99.3566 26H96.7966L95.6166 22.84ZM90.7166 20.76H94.8366L92.7966 15L90.7166 20.76ZM112.21 26H101.45V12H103.85V23.92H110.25V12H112.65V23.92H114.45V28.6H112.21V26ZM116.841 12H119.241V22.2L126.121 12H128.441V26H126.041V15.8L119.161 26H116.841V12ZM134.556 20.36C133.516 20.0533 132.736 19.5533 132.216 18.86C131.696 18.1533 131.436 17.32 131.436 16.36C131.436 15.72 131.55 15.1333 131.776 14.6C132.003 14.0667 132.336 13.6067 132.776 13.22C133.216 12.8333 133.763 12.5333 134.416 12.32C135.083 12.1067 135.856 12 136.736 12H142.036V26H139.636V20.64H136.696L133.596 26H131.036L134.556 20.36ZM133.836 16.36C133.836 17.08 134.076 17.64 134.556 18.04C135.05 18.44 135.91 18.64 137.136 18.64H139.636V14.08H137.136C135.91 14.08 135.05 14.28 134.556 14.68C134.076 15.08 133.836 15.64 133.836 16.36Z" fill="black"/>
</svg>
