<svg width="195" height="36" viewBox="0 0 195 36" fill="none" xmlns="http://www.w3.org/2000/svg">
<rect width="195" height="36" fill="white"/>
<path d="M31.9999 12.68L29.9999 6.68002C29.9304 6.47304 29.7949 6.29452 29.6144 6.17173C29.4338 6.04894 29.218 5.98864 28.9999 6.00002H6.99994C6.78187 5.98864 6.56608 6.04894 6.38551 6.17173C6.20494 6.29452 6.06952 6.47304 5.99994 6.68002L3.99994 12.68C3.98553 12.7862 3.98553 12.8938 3.99994 13V19C3.99994 19.2652 4.1053 19.5196 4.29283 19.7071C4.48037 19.8947 4.73472 20 4.99994 20H5.99994V30H7.99994V20H13.9999V30H29.9999V20H30.9999C31.2652 20 31.5195 19.8947 31.707 19.7071C31.8946 19.5196 31.9999 19.2652 31.9999 19V13C32.0143 12.8938 32.0143 12.7862 31.9999 12.68ZM27.9999 28H15.9999V20H27.9999V28ZM29.9999 18H25.9999V14H23.9999V18H18.9999V14H16.9999V18H11.9999V14H9.99994V18H5.99994V13.16L7.71994 8.00002H28.2799L29.9999 13.16V18Z" fill="black"/>
<path d="M49.5527 26.22C48.6994 26.22 47.8861 26.0867 47.1127 25.82C46.3394 25.5533 45.6594 25.14 45.0727 24.58C44.4861 24.0067 44.0194 23.2733 43.6727 22.38C43.3261 21.4733 43.1527 20.38 43.1527 19.1V18.7C43.1527 17.4733 43.3261 16.4267 43.6727 15.56C44.0194 14.68 44.4861 13.96 45.0727 13.4C45.6594 12.84 46.3394 12.4333 47.1127 12.18C47.8861 11.9133 48.6994 11.78 49.5527 11.78C50.4061 11.78 51.2194 11.9133 51.9927 12.18C52.7661 12.4333 53.4461 12.84 54.0327 13.4C54.6194 13.96 55.0861 14.68 55.4327 15.56C55.7794 16.4267 55.9527 17.4733 55.9527 18.7V19.1C55.9527 20.38 55.7794 21.4733 55.4327 22.38C55.0861 23.2733 54.6194 24.0067 54.0327 24.58C53.4461 25.14 52.7661 25.5533 51.9927 25.82C51.2194 26.0867 50.4061 26.22 49.5527 26.22ZM49.5527 24.1C50.0461 24.1 50.5261 24.0133 50.9927 23.84C51.4594 23.6667 51.8727 23.3867 52.2327 23C52.5927 22.6 52.8794 22.08 53.0927 21.44C53.3194 20.8 53.4327 20.02 53.4327 19.1V18.7C53.4327 17.82 53.3194 17.08 53.0927 16.48C52.8794 15.8667 52.5927 15.3733 52.2327 15C51.8727 14.6133 51.4594 14.3333 50.9927 14.16C50.5261 13.9867 50.0461 13.9 49.5527 13.9C49.0461 13.9 48.5594 13.9867 48.0927 14.16C47.6261 14.3333 47.2127 14.6133 46.8527 15C46.4927 15.3733 46.2061 15.8667 45.9927 16.48C45.7794 17.08 45.6727 17.82 45.6727 18.7V19.1C45.6727 20.02 45.7794 20.8 45.9927 21.44C46.2061 22.08 46.4927 22.6 46.8527 23C47.2127 23.3867 47.6261 23.6667 48.0927 23.84C48.5594 24.0133 49.0461 24.1 49.5527 24.1ZM58.8527 12H63.9527C65.8327 12 67.2194 12.4067 68.1127 13.22C69.0061 14.02 69.4527 15.1 69.4527 16.46C69.4527 17.82 69.0061 18.9067 68.1127 19.72C67.2194 20.52 65.8327 20.92 63.9527 20.92H61.2527V26H58.8527V12ZM63.7527 18.84C64.3794 18.84 64.9061 18.7933 65.3327 18.7C65.7594 18.5933 66.0994 18.4467 66.3527 18.26C66.6061 18.06 66.7861 17.8133 66.8927 17.52C66.9994 17.2133 67.0527 16.86 67.0527 16.46C67.0527 16.06 66.9994 15.7133 66.8927 15.42C66.7861 15.1267 66.6061 14.88 66.3527 14.68C66.0994 14.48 65.7594 14.3333 65.3327 14.24C64.9061 14.1333 64.3794 14.08 63.7527 14.08H61.2527V18.84H63.7527ZM72.0559 12H81.0559V14.08H74.4559V26H72.0559V12ZM89.2104 22.84H83.5304L82.3504 26H79.9504L85.2504 12H87.6504L92.9504 26H90.3904L89.2104 22.84ZM84.3104 20.76H88.4304L86.3904 15L84.3104 20.76ZM95.0441 12H97.4441V17.76H104.244V12H106.644V26H104.244V19.84H97.4441V26H95.0441V12ZM110.239 12H112.639V22.2L119.519 12H121.839V26H119.439V15.8L112.559 26H110.239V12ZM130.135 26.22C129.255 26.22 128.475 26.1133 127.795 25.9C127.128 25.6867 126.555 25.3867 126.075 25C125.608 24.6133 125.241 24.1533 124.975 23.62C124.721 23.0733 124.575 22.4667 124.535 21.8H127.055C127.135 22.48 127.435 23.0333 127.955 23.46C128.475 23.8867 129.201 24.1 130.135 24.1C131.188 24.1 131.961 23.9133 132.455 23.54C132.961 23.1667 133.215 22.6333 133.215 21.94C133.215 21.2733 132.975 20.7467 132.495 20.36C132.015 19.96 131.228 19.76 130.135 19.76H128.435V17.84H130.135C130.988 17.84 131.628 17.6667 132.055 17.32C132.495 16.96 132.715 16.4733 132.715 15.86C132.715 15.26 132.508 14.7867 132.095 14.44C131.695 14.08 131.041 13.9 130.135 13.9C129.241 13.9 128.568 14.0733 128.115 14.42C127.675 14.7667 127.421 15.26 127.355 15.9H124.835C124.928 14.6467 125.408 13.6467 126.275 12.9C127.141 12.1533 128.428 11.78 130.135 11.78C131.841 11.78 133.115 12.1333 133.955 12.84C134.808 13.5467 135.235 14.52 135.235 15.76C135.235 16.4933 135.028 17.1133 134.615 17.62C134.201 18.1133 133.648 18.4733 132.955 18.7C133.808 18.9 134.481 19.28 134.975 19.84C135.481 20.4 135.735 21.1333 135.735 22.04C135.735 22.6533 135.615 23.22 135.375 23.74C135.148 24.2467 134.795 24.6867 134.315 25.06C133.848 25.42 133.261 25.7067 132.555 25.92C131.861 26.12 131.055 26.22 130.135 26.22ZM145.91 22.84H140.23L139.05 26H136.65L141.95 12H144.35L149.65 26H147.09L145.91 22.84ZM141.01 20.76H145.13L143.09 15L141.01 20.76ZM153.637 14.08H148.937V12H160.737V14.08H156.037V26H153.637V14.08ZM168.244 26.22C167.391 26.22 166.577 26.0867 165.804 25.82C165.031 25.5533 164.351 25.14 163.764 24.58C163.177 24.0067 162.711 23.2733 162.364 22.38C162.017 21.4733 161.844 20.38 161.844 19.1V18.7C161.844 17.4733 162.017 16.4267 162.364 15.56C162.711 14.68 163.177 13.96 163.764 13.4C164.351 12.84 165.031 12.4333 165.804 12.18C166.577 11.9133 167.391 11.78 168.244 11.78C169.097 11.78 169.911 11.9133 170.684 12.18C171.457 12.4333 172.137 12.84 172.724 13.4C173.311 13.96 173.777 14.68 174.124 15.56C174.471 16.4267 174.644 17.4733 174.644 18.7V19.1C174.644 20.38 174.471 21.4733 174.124 22.38C173.777 23.2733 173.311 24.0067 172.724 24.58C172.137 25.14 171.457 25.5533 170.684 25.82C169.911 26.0867 169.097 26.22 168.244 26.22ZM168.244 24.1C168.737 24.1 169.217 24.0133 169.684 23.84C170.151 23.6667 170.564 23.3867 170.924 23C171.284 22.6 171.571 22.08 171.784 21.44C172.011 20.8 172.124 20.02 172.124 19.1V18.7C172.124 17.82 172.011 17.08 171.784 16.48C171.571 15.8667 171.284 15.3733 170.924 15C170.564 14.6133 170.151 14.3333 169.684 14.16C169.217 13.9867 168.737 13.9 168.244 13.9C167.737 13.9 167.251 13.9867 166.784 14.16C166.317 14.3333 165.904 14.6133 165.544 15C165.184 15.3733 164.897 15.8667 164.684 16.48C164.471 17.08 164.364 17.82 164.364 18.7V19.1C164.364 20.02 164.471 20.8 164.684 21.44C164.897 22.08 165.184 22.6 165.544 23C165.904 23.3867 166.317 23.6667 166.784 23.84C167.251 24.0133 167.737 24.1 168.244 24.1ZM177.544 12H182.644C184.524 12 185.911 12.4067 186.804 13.22C187.697 14.02 188.144 15.1 188.144 16.46C188.144 17.82 187.697 18.9067 186.804 19.72C185.911 20.52 184.524 20.92 182.644 20.92H179.944V26H177.544V12ZM182.444 18.84C183.071 18.84 183.597 18.7933 184.024 18.7C184.451 18.5933 184.791 18.4467 185.044 18.26C185.297 18.06 185.477 17.8133 185.584 17.52C185.691 17.2133 185.744 16.86 185.744 16.46C185.744 16.06 185.691 15.7133 185.584 15.42C185.477 15.1267 185.297 14.88 185.044 14.68C184.791 14.48 184.451 14.3333 184.024 14.24C183.597 14.1333 183.071 14.08 182.444 14.08H179.944V18.84H182.444Z" fill="black"/>
</svg>
