<svg width="216" height="36" viewBox="0 0 216 36" fill="none" xmlns="http://www.w3.org/2000/svg">
<path d="M25.6 23.4L29.2 27L25.6 30.6L27 32L32 27L27 22L25.6 23.4ZM22.4 23.4L18.8 27L22.4 30.6L21 32L16 27L21 22L22.4 23.4Z" fill="#F4D424"/>
<path d="M30 10H18L14.6 6.6C14.2 6.2 13.7 6 13.2 6H6C4.9 6 4 6.9 4 8V28C4 29.1 4.9 30 6 30H13V28H6V8H13.2L16.6 11.4L17.2 12H30V20H32V12C32 10.9 31.1 10 30 10Z" fill="#F4D424"/>
<path d="M44.1184 12H46.5184V22.2L53.3984 12H55.7184V26H53.3184V15.8L46.4384 26H44.1184V12ZM64.7137 26.22C63.847 26.22 63.0403 26.0867 62.2937 25.82C61.5603 25.5533 60.9203 25.1333 60.3737 24.56C59.827 23.9867 59.3937 23.2533 59.0737 22.36C58.767 21.4533 58.6137 20.3667 58.6137 19.1V18.7C58.6137 17.4867 58.7737 16.4467 59.0937 15.58C59.4137 14.7 59.847 13.98 60.3937 13.42C60.9537 12.86 61.6003 12.4467 62.3337 12.18C63.0803 11.9133 63.8737 11.78 64.7137 11.78C65.487 11.78 66.207 11.88 66.8737 12.08C67.5403 12.2667 68.1203 12.5533 68.6137 12.94C69.1203 13.3267 69.527 13.8067 69.8337 14.38C70.1537 14.9533 70.347 15.6267 70.4137 16.4H67.8937C67.7203 15.5333 67.347 14.9 66.7737 14.5C66.2137 14.1 65.527 13.9 64.7137 13.9C64.2737 13.9 63.8403 13.98 63.4137 14.14C62.987 14.3 62.6003 14.5667 62.2537 14.94C61.9203 15.3133 61.647 15.8067 61.4337 16.42C61.2337 17.0333 61.1337 17.7933 61.1337 18.7V19.1C61.1337 20.06 61.2403 20.86 61.4537 21.5C61.6803 22.14 61.967 22.6533 62.3137 23.04C62.6603 23.4267 63.0403 23.7 63.4537 23.86C63.8803 24.02 64.3003 24.1 64.7137 24.1C65.6737 24.1 66.4137 23.88 66.9337 23.44C67.467 22.9867 67.787 22.3733 67.8937 21.6H70.4137C70.3337 22.4267 70.1337 23.1333 69.8137 23.72C69.4937 24.3067 69.0803 24.7867 68.5737 25.16C68.0803 25.52 67.5003 25.7867 66.8337 25.96C66.1803 26.1333 65.4737 26.22 64.7137 26.22ZM76.2516 18.68L71.6316 12H74.3516L77.7516 16.9L81.1916 12H83.8316L79.2316 18.64L84.0316 26H81.2716L77.7116 20.4L74.1116 26H71.4316L76.2516 18.68ZM91.6348 26.22C90.7814 26.22 89.9681 26.0867 89.1948 25.82C88.4214 25.5533 87.7414 25.14 87.1548 24.58C86.5681 24.0067 86.1014 23.2733 85.7548 22.38C85.4081 21.4733 85.2348 20.38 85.2348 19.1V18.7C85.2348 17.4733 85.4081 16.4267 85.7548 15.56C86.1014 14.68 86.5681 13.96 87.1548 13.4C87.7414 12.84 88.4214 12.4333 89.1948 12.18C89.9681 11.9133 90.7814 11.78 91.6348 11.78C92.4881 11.78 93.3014 11.9133 94.0748 12.18C94.8481 12.4333 95.5281 12.84 96.1148 13.4C96.7014 13.96 97.1681 14.68 97.5148 15.56C97.8614 16.4267 98.0348 17.4733 98.0348 18.7V19.1C98.0348 20.38 97.8614 21.4733 97.5148 22.38C97.1681 23.2733 96.7014 24.0067 96.1148 24.58C95.5281 25.14 94.8481 25.5533 94.0748 25.82C93.3014 26.0867 92.4881 26.22 91.6348 26.22ZM91.6348 24.1C92.1281 24.1 92.6081 24.0133 93.0748 23.84C93.5414 23.6667 93.9548 23.3867 94.3148 23C94.6748 22.6 94.9614 22.08 95.1748 21.44C95.4014 20.8 95.5148 20.02 95.5148 19.1V18.7C95.5148 17.82 95.4014 17.08 95.1748 16.48C94.9614 15.8667 94.6748 15.3733 94.3148 15C93.9548 14.6133 93.5414 14.3333 93.0748 14.16C92.6081 13.9867 92.1281 13.9 91.6348 13.9C91.1281 13.9 90.6414 13.9867 90.1748 14.16C89.7081 14.3333 89.2948 14.6133 88.9348 15C88.5748 15.3733 88.2881 15.8667 88.0748 16.48C87.8614 17.08 87.7548 17.82 87.7548 18.7V19.1C87.7548 20.02 87.8614 20.8 88.0748 21.44C88.2881 22.08 88.5748 22.6 88.9348 23C89.2948 23.3867 89.7081 23.6667 90.1748 23.84C90.6414 24.0133 91.1281 24.1 91.6348 24.1ZM98.9488 23.92H100.449C100.702 23.4267 100.902 22.8333 101.049 22.14C101.209 21.4333 101.329 20.68 101.409 19.88C101.502 19.08 101.562 18.26 101.589 17.42C101.629 16.58 101.649 15.7733 101.649 15V12H111.129V23.92H112.749V28.6H110.549V26H101.149V28.6H98.9488V23.92ZM108.729 23.92V14.08H103.969V15.4C103.969 17.32 103.875 18.9667 103.689 20.34C103.502 21.7133 103.235 22.9067 102.889 23.92H108.729ZM115.154 12H117.554V17.76H124.354V12H126.754V26H124.354V19.84H117.554V26H115.154V12ZM130.349 12H132.749V17.28H135.049C135.982 17.28 136.795 17.3867 137.489 17.6C138.182 17.8 138.755 18.0933 139.209 18.48C139.662 18.8533 139.995 19.3133 140.209 19.86C140.435 20.3933 140.549 20.9867 140.549 21.64C140.549 22.2933 140.435 22.8933 140.209 23.44C139.995 23.9733 139.662 24.4333 139.209 24.82C138.755 25.1933 138.182 25.4867 137.489 25.7C136.795 25.9 135.982 26 135.049 26H130.349V12ZM134.849 23.92C135.475 23.92 136.002 23.8733 136.429 23.78C136.855 23.6733 137.195 23.5267 137.449 23.34C137.702 23.1533 137.882 22.92 137.989 22.64C138.095 22.3467 138.149 22.0133 138.149 21.64C138.149 21.2667 138.095 20.94 137.989 20.66C137.882 20.3667 137.702 20.1267 137.449 19.94C137.195 19.7533 136.855 19.6133 136.429 19.52C136.002 19.4133 135.475 19.36 134.849 19.36H132.749V23.92H134.849ZM142.349 12H144.749V26H142.349V12ZM148.357 12H150.757V22.2L157.637 12H159.957V26H157.557V15.8L150.677 26H148.357V12ZM154.157 11.1C152.917 11.1 152.003 10.8267 151.417 10.28C150.843 9.73333 150.557 8.94 150.557 7.9H152.757C152.757 8.51333 152.87 8.94667 153.097 9.2C153.337 9.45333 153.69 9.58 154.157 9.58C154.623 9.58 154.97 9.45333 155.197 9.2C155.437 8.94667 155.557 8.51333 155.557 7.9H157.757C157.757 8.94 157.463 9.73333 156.877 10.28C156.303 10.8267 155.397 11.1 154.157 11.1ZM168.552 12H170.952V17.86H172.352L177.432 12H180.152L174.252 18.66L180.352 26H177.432L172.352 19.74H170.952V26H168.552V12ZM187.963 26.22C187.11 26.22 186.296 26.0867 185.523 25.82C184.75 25.5533 184.07 25.14 183.483 24.58C182.896 24.0067 182.43 23.2733 182.083 22.38C181.736 21.4733 181.563 20.38 181.563 19.1V18.7C181.563 17.4733 181.736 16.4267 182.083 15.56C182.43 14.68 182.896 13.96 183.483 13.4C184.07 12.84 184.75 12.4333 185.523 12.18C186.296 11.9133 187.11 11.78 187.963 11.78C188.816 11.78 189.63 11.9133 190.403 12.18C191.176 12.4333 191.856 12.84 192.443 13.4C193.03 13.96 193.496 14.68 193.843 15.56C194.19 16.4267 194.363 17.4733 194.363 18.7V19.1C194.363 20.38 194.19 21.4733 193.843 22.38C193.496 23.2733 193.03 24.0067 192.443 24.58C191.856 25.14 191.176 25.5533 190.403 25.82C189.63 26.0867 188.816 26.22 187.963 26.22ZM187.963 24.1C188.456 24.1 188.936 24.0133 189.403 23.84C189.87 23.6667 190.283 23.3867 190.643 23C191.003 22.6 191.29 22.08 191.503 21.44C191.73 20.8 191.843 20.02 191.843 19.1V18.7C191.843 17.82 191.73 17.08 191.503 16.48C191.29 15.8667 191.003 15.3733 190.643 15C190.283 14.6133 189.87 14.3333 189.403 14.16C188.936 13.9867 188.456 13.9 187.963 13.9C187.456 13.9 186.97 13.9867 186.503 14.16C186.036 14.3333 185.623 14.6133 185.263 15C184.903 15.3733 184.616 15.8667 184.403 16.48C184.19 17.08 184.083 17.82 184.083 18.7V19.1C184.083 20.02 184.19 20.8 184.403 21.44C184.616 22.08 184.903 22.6 185.263 23C185.623 23.3867 186.036 23.6667 186.503 23.84C186.97 24.0133 187.456 24.1 187.963 24.1ZM195.277 23.92H196.777C197.03 23.4267 197.23 22.8333 197.377 22.14C197.537 21.4333 197.657 20.68 197.737 19.88C197.83 19.08 197.89 18.26 197.917 17.42C197.957 16.58 197.977 15.7733 197.977 15V12H207.457V23.92H209.077V28.6H206.877V26H197.477V28.6H195.277V23.92ZM205.057 23.92V14.08H200.297V15.4C200.297 17.32 200.204 18.9667 200.017 20.34C199.83 21.7133 199.564 22.9067 199.217 23.92H205.057Z" fill="#F4D424"/>
</svg>
